<svg xmlns="http://www.w3.org/2000/svg" xmlns:xlink="http://www.w3.org/1999/xlink" viewBox="0 0 552.73 761.76" version="1.0"><defs><linearGradient id="c" y2="546.78" gradientUnits="userSpaceOnUse" y1="270" x2="445.02" x1="450.18"><stop style="stop-color:#d19b75" offset="0"/><stop style="stop-color:#e8cdba;stop-opacity:0" offset="1"/></linearGradient><linearGradient x1="340.77" y1="707.7" gradientTransform="translate(-4.0406 2.7e-7)" x2="207.43" gradientUnits="userSpaceOnUse" y2="595.83" id="d"><stop offset="0" style="stop-color:#d3d7cf"/><stop offset="1" style="stop-color:#d3d7cf;stop-opacity:0"/></linearGradient><linearGradient x1="294.16" x2="294.16" gradientTransform="matrix(-1 0 0 1 675.25 -1.7678)" y1="-12.541" gradientUnits="userSpaceOnUse" xlink:href="#a" y2="111.56" id="C"/><linearGradient id="a"><stop offset="0" style="stop-color:#fff"/><stop offset="1" style="stop-color:#fff;stop-opacity:0"/></linearGradient><linearGradient x1="294.16" y1="-12.541" gradientTransform="translate(.7071 -3.182)" x2="294.16" gradientUnits="userSpaceOnUse" xlink:href="#a" y2="111.56" id="B"/><linearGradient x1="-853.12" y1="-142.6" gradientTransform="matrix(2.4991 0 0 -2.4991 2407.4 -407.61)" x2="-807.97" gradientUnits="userSpaceOnUse" y2="-148.55" id="A"><stop offset="0" style="stop-color:#919099"/><stop offset=".30293" style="stop-color:#f4edfd"/><stop offset="1" style="stop-color:#f7f2fe"/></linearGradient><linearGradient x1="-848" y1="-141.36" gradientTransform="matrix(-2.4991 0 0 2.4991 -1730.6 334.17)" x2="-807.69" gradientUnits="userSpaceOnUse" y2="-148.43" id="z"><stop offset="0" style="stop-color:#919099"/><stop offset=".58621" style="stop-color:#f4edfd"/><stop offset="1" style="stop-color:#9a98a2"/></linearGradient><linearGradient x1="-840.16" y1="-152.02" gradientTransform="translate(2407.4 334.48) scale(2.4991)" x2="-840.16" gradientUnits="userSpaceOnUse" y2="-146.11" id="y"><stop offset="0" style="stop-color:#555753"/><stop offset="1" style="stop-color:#555753;stop-opacity:0"/></linearGradient><linearGradient x1="-834.85" y1="-152.02" gradientTransform="translate(2407.4 334.48) scale(2.4991)" x2="-834.97" gradientUnits="userSpaceOnUse" y2="-146.11" id="x"><stop offset="0" style="stop-color:#555753"/><stop offset="1" style="stop-color:#555753;stop-opacity:0"/></linearGradient><linearGradient x1="-815.82" y1="-151.87" gradientTransform="translate(2407.4 334.48) scale(2.4991)" x2="-815.78" gradientUnits="userSpaceOnUse" y2="-146.11" id="w"><stop offset="0" style="stop-color:#555753"/><stop offset="1" style="stop-color:#555753;stop-opacity:0"/></linearGradient><linearGradient x1="-820.99" y1="-151.73" gradientTransform="translate(2407.4 334.48) scale(2.4991)" x2="-820.97" gradientUnits="userSpaceOnUse" y2="-146.11" id="v"><stop offset="0" style="stop-color:#555753"/><stop offset="1" style="stop-color:#555753;stop-opacity:0"/></linearGradient><linearGradient x1="-811.72" y1="-152.09" gradientTransform="translate(2407.4 334.48) scale(2.4991)" x2="-811.76" gradientUnits="userSpaceOnUse" y2="-146.11" id="u"><stop offset="0" style="stop-color:#555753"/><stop offset="1" style="stop-color:#555753;stop-opacity:0"/></linearGradient><linearGradient x1="-845.18" y1="-152.02" gradientTransform="translate(2407.4 334.48) scale(2.4991)" x2="-845.17" gradientUnits="userSpaceOnUse" y2="-146.11" id="t"><stop offset="0" style="stop-color:#555753"/><stop offset="1" style="stop-color:#555753;stop-opacity:0"/></linearGradient><linearGradient x1="-831.33" y1="-152.83" gradientTransform="translate(2407.4 412.6) scale(2.4991)" x2="-827.93" gradientUnits="userSpaceOnUse" y2="-146.11" id="s"><stop offset="0" style="stop-color:#eeeeec"/><stop offset="1" style="stop-color:#555753"/></linearGradient><linearGradient x1="-848" y1="-141.36" gradientTransform="translate(2407.4 334.48) scale(2.4991)" x2="-807.69" gradientUnits="userSpaceOnUse" y2="-148.43" id="r"><stop offset="0" style="stop-color:#919099"/><stop offset=".58621" style="stop-color:#f4edfd"/><stop offset="1" style="stop-color:#f7f2fe"/></linearGradient><linearGradient id="b"><stop offset="0" style="stop-color:#fff"/><stop offset="1" style="stop-color:#fff;stop-opacity:.34211"/></linearGradient><linearGradient x1="324" y1="-84.562" x2="334.38" gradientUnits="userSpaceOnUse" y2="-184.35" id="n"><stop offset="0" style="stop-color:#bc3f00"/><stop offset=".40754" style="stop-color:#df9c01"/><stop offset="1" style="stop-color:#fed36c"/></linearGradient><linearGradient x1="-999.14" y1="-58.149" x2="-947.88" gradientUnits="userSpaceOnUse" y2="-89.615" id="f"><stop offset="0" style="stop-color:#c6bba9"/><stop offset="1" style="stop-color:#f3f2f0;stop-opacity:.35714"/></linearGradient><linearGradient x1="-891.31" y1="-76.887" gradientTransform="translate(2510.5 282) scale(2.4991)" x2="-851.19" gradientUnits="userSpaceOnUse" spreadMethod="reflect" y2="-75.636" id="e"><stop offset="0" style="stop-color:#c6bba9"/><stop offset=".79824" style="stop-color:#f0f0f2"/><stop offset="1" style="stop-color:#f3f2f0"/></linearGradient><filter color-interpolation-filters="sRGB" id="m"><feGaussianBlur stdDeviation=".08720054"/></filter><filter color-interpolation-filters="sRGB" id="l"><feGaussianBlur stdDeviation=".08720054"/></filter><filter color-interpolation-filters="sRGB" id="k"><feGaussianBlur stdDeviation=".08720054"/></filter><filter color-interpolation-filters="sRGB" id="j"><feGaussianBlur stdDeviation=".08720054"/></filter><filter color-interpolation-filters="sRGB" id="i"><feGaussianBlur stdDeviation=".08720054"/></filter><filter color-interpolation-filters="sRGB" id="h"><feGaussianBlur stdDeviation=".08720054"/></filter><filter color-interpolation-filters="sRGB" id="g"><feGaussianBlur stdDeviation=".08720054"/></filter><radialGradient r="5.875" gradientTransform="matrix(1.5415 2.4094 -3.1784 5.3067 1141 2462.9)" cx="-804.26" cy="-130.34" gradientUnits="userSpaceOnUse" id="q"><stop offset="0" style="stop-color:#d98c01"/><stop offset="1" style="stop-color:#f0ba3c"/></radialGradient><radialGradient r="5.875" gradientTransform="matrix(1 1.3617 -.65309 .47962 -87.158 1032.2)" cx="-808.62" cy="-135.09" gradientUnits="userSpaceOnUse" xlink:href="#b" id="p"/><radialGradient xlink:href="#b" id="o" gradientUnits="userSpaceOnUse" gradientTransform="matrix(1 1.3617 -.65309 .47962 -87.158 1032.2)" cx="-808.62" cy="-135.09" r="5.875"/></defs><path style="fill-rule:evenodd;fill:#000" d="M325.47 354.22c-40.11 15.43-96.12 36-96.28 115.56 2.44 57.5 36.51 58.15 69.42 66.65-61.64-12.94-161.76-24.09-172.04 51.82-8.49 62.7 108.67 102.68 135.67 105.38 49.73 4.96 75.19-5.62 71.93-49.61 65.15 25.31 106.53 12.88 149.46-1.31 1.04 50.97 35 49.31 64.74 48.33 81.84-2.65 121.92-42.69 129.61-86.98 11.39-65.51-91.24-82.19-155.37-67.63 50.59-4.82 73.67-20 74.06-79.61.42-63.32-52.48-100.43-118.47-111.86-63.65-11.03-122.06-2.54-152.73 9.26z" transform="translate(-126.13 52.897)"/><path style="fill-rule:evenodd;fill:#000" d="M272.45 531.16c7.12 27.18 18.72 49.23 8.72 95.97 98.2 57.46 178.93 41.15 254 .97-9.88-39.09 10.73-66.74 19.39-98.88-105.2 24.36-197.57 21.47-282.11 1.94z" transform="translate(-126.13 52.897)"/><path style="fill-rule:evenodd;fill:#e8cdba" d="M324.14 358.9c-39.39 15.16-90.76 33.54-90.92 111.68 2.4 56.47 39.49 58.02 70 70-60.54-12.71-162.5-25.48-172.6 49.07-8.34 61.58 106.09 98.28 132.6 100.93 48.84 4.87 73.2-6.8 70-50 63.98 24.85 107.84 13.93 150 0 5.25 44.79 22.24 56.4 51.31 53.46 95.39-9.65 135.22-45.92 140.36-89.76 8.41-71.68-107.78-77.09-171.67-63.7 47.87-7.01 92.05-19.59 90-80-2.39-70.28-54.27-100.45-119.08-111.68-62.51-10.83-119.87-1.59-150 10z" transform="translate(-126.13 52.897)"/><path style="fill-rule:evenodd;fill:#afa" transform="translate(-80.295 46.3015)" d="M233.09 541.1c6.79 25.93 17.86 46.97 8.32 91.57 93.69 54.81 170.71 39.26 242.34.92-9.43-37.29 10.23-63.68 18.5-94.34-100.37 23.24-188.5 20.48-269.16 1.85z"/><path style="fill-rule:evenodd;fill:#000" d="M296.36 362.95c-46.26 14.47-65.99 49.57-90.49 80.97 18.64 33.82 60.06 42.35 100.97 51.44l-21.91 51.44c125.47 37.23 192.19 19.08 247.56-3.76l-17.14-52.47c44.62.38 77.1-14.65 103.94-44.75-31.07-33.08-39.11-76.24-106.69-93.35-58.24-27.58-145.64-22.13-216.24 10.48z" transform="translate(-126.13 52.897)"/><path style="fill-rule:evenodd;fill:#87cdde" transform="translate(-80.295 46.3015)" d="M255.29 370.91c-44.92 14.05-64.08 48.14-87.87 78.62 11.67 25.57 41.94 34.55 85.39 47.06 18.02 5.19-5.9-44.69 13.96-57.29l-22.58 110.12c121.82 36.15 183.01 20.33 236.79-1.85l-15.35-109.89c15.13 15.88 1.06 61.6 19.5 57.84 34.46-7.03 70.68-29.53 83.72-44.14-30.17-32.13-37.98-74.03-103.6-90.65-56.55-26.77-141.42-21.49-209.96 10.18z"/><path style="fill-rule:evenodd;fill:#000" d="M320.9 684.67c21.36-19.15 18.48-53.47-15.24-91.27-21.71-23.34-53.11-77.77-76.39-59.7-14.05 10.9-6.89 20.06-2.81 26.23-5.03-4.51-11.37-13.77-24.01-2.87-13.26 11.42-6.76 18.97-2.35 24.21-4.35-3.42-11.67-9.87-23.06.06-11.24 9.8-2.44 21.58 1.15 24.6-4.16-1.42-7.6-6.77-16.6 3.92-8.85 10.53-15.19 14.38 19.05 45.99 38.07 35.14 114.8 51.66 140.26 28.83z" transform="translate(-123.5138 54.2051)"/><path style="fill-rule:evenodd;fill:#e8cdba" d="M318.61 683.19c19.86-18.11 17.79-51.18-15.38-88.15-20.18-22.07-49.06-76.7-72.77-59.25-15.82 11.65 1.62 25.78 5.38 35.38-8.87-6.06-19.34-26.34-33.7-10.93-11.59 12.44 3.19 23.33 9.24 33.88-10.07-6.69-18.77-24.5-32.77-10.93-13.55 13.14 3.16 22.43 11.33 32.08-12.1-5.58-16.74-14.61-25.78-4.85-10.43 11.25-11.83 14.73 20 44.62 35.37 33.23 110.79 49.73 134.45 28.15z" transform="translate(-123.5138 54.2051)"/><path style="fill-rule:evenodd;fill:#000" d="M320.9 684.67c21.36-19.15 18.48-53.47-15.24-91.27-21.71-23.34-53.11-77.77-76.39-59.7-14.05 10.9-6.89 20.06-2.81 26.23-5.03-4.51-11.37-13.77-24.01-2.87-13.26 11.42-6.76 18.97-2.35 24.21-4.35-3.42-11.67-9.87-23.06.06-11.24 9.8-2.44 21.58 1.15 24.6-4.16-1.42-7.6-6.77-16.6 3.92-8.85 10.53-15.19 14.38 19.05 45.99 38.07 35.14 114.8 51.66 140.26 28.83z" transform="matrix(-1 0 0 1 688.82 54.814)"/><path style="fill-rule:evenodd;fill:#e8cdba" d="M318.61 683.19c19.86-18.11 17.79-51.18-15.38-88.15-20.18-22.07-49.06-76.7-72.77-59.25-15.82 11.65 1.62 25.78 5.38 35.38-8.87-6.06-19.34-26.34-33.7-10.93-11.59 12.44 3.19 23.33 9.24 33.88-10.07-6.69-18.77-24.5-32.77-10.93-13.55 13.14 3.16 22.43 11.33 32.08-12.1-5.58-16.74-14.61-25.78-4.85-10.43 11.25-11.83 14.73 20 44.62 35.37 33.23 110.79 49.73 134.45 28.15z" transform="matrix(-1 0 0 1 688.82 54.814)"/><path style="fill:#e8cdba" d="M417.99 824.32c-52.29-7.71-96.75-42.66-126.41-85.11-30.87-43.89-46.95-96.99-50.41-150.25-6.42-10.24-22.33-11.66-23.97-26.06-3.73-10.62-2.64-23.11.18-33.97 1.93-15.11 19.89-18.15 28.51-22.75 12.51-64.38 44.99-127.46 99.54-165.83 27-19.82 59.87-31.66 93.47-32.05 7.01-2.01 21.56 3.17 22.29-6.97-2.43-7.07-1.38-15.25 3.06-19.78-10.39-5.98-13.46-21.06.44-25.19 15.78-5.13 15.73 17.71 24.46 25.79 3.66 12.21-15.22 13.89-7.44 27.02 6.05 8.12 23.56 7.5 33.06 14.75 53.1 25.42 91.61 74.84 112.13 129.16 7.88 20.48 13.48 41.82 16.85 63.5 12.84-.33 31.58 4.03 31.28 20.12.9 16.4-.9 34.6-11.59 47.77-6.01 7.84-20.42 4.21-17.54 16.95-6.9 63.18-31.43 126.21-77.58 171.09-31.96 31.97-75.55 54.04-121.47 53.29-9.64.1-19.28-.45-28.86-1.48z" transform="matrix(.8409 0 0 .72701 -91.67292 -142.1440711)"/><path style="fill:url(#c)" d="M417.99 824.32c-52.29-7.71-96.75-42.66-126.41-85.11-30.87-43.89-46.95-96.99-50.41-150.25-6.42-10.24-22.33-11.66-23.97-26.06-3.73-10.62-2.64-23.11.18-33.97 1.93-15.11 19.89-18.15 28.51-22.75 12.51-64.38 44.99-127.46 99.54-165.83 27-19.82 59.87-31.66 93.47-32.05 7.01-2.01 21.56 3.17 22.29-6.97-2.43-7.07-1.38-15.25 3.06-19.78-10.39-5.98-13.46-21.06.44-25.19 15.78-5.13 15.73 17.71 24.46 25.79 3.66 12.21-15.22 13.89-7.44 27.02 6.05 8.12 23.56 7.5 33.06 14.75 53.1 25.42 91.61 74.84 112.13 129.16 7.88 20.48 13.48 41.82 16.85 63.5 12.84-.33 31.58 4.03 31.28 20.12.9 16.4-.9 34.6-11.59 47.77-6.01 7.84-20.42 4.21-17.54 16.95-6.9 63.18-31.43 126.21-77.58 171.09-31.96 31.97-75.55 54.04-121.47 53.29-9.64.1-19.28-.45-28.86-1.48z" transform="matrix(.8409 0 0 .72701 -91.67292 -142.1440711)"/><path style="fill:#000" d="M417.99 824.32c-52.29-7.71-96.75-42.66-126.41-85.11-30.87-43.89-46.95-96.99-50.41-150.25-6.42-10.24-22.33-11.66-23.97-26.06-3.73-10.62-2.64-23.11.18-33.97 1.93-15.11 19.89-18.15 28.51-22.75 12.51-64.38 44.99-127.46 99.54-165.83 27-19.82 59.87-31.66 93.47-32.05 7.01-2.01 21.56 3.17 22.29-6.97-2.43-7.07-1.38-15.25 3.06-19.78-10.39-5.98-13.46-21.06.44-25.19 15.78-5.13 15.73 17.71 24.46 25.79 3.66 12.21-15.22 13.89-7.44 27.02 6.05 8.12 23.56 7.5 33.06 14.75 53.1 25.42 91.61 74.84 112.13 129.16 7.88 20.48 13.48 41.82 16.85 63.5 12.84-.33 31.58 4.03 31.28 20.12.9 16.4-.9 34.6-11.59 47.77-6.01 7.84-20.42 4.21-17.54 16.95-6.9 63.18-31.43 126.21-77.58 171.09-31.96 31.97-75.55 54.04-121.47 53.29-9.64.1-19.28-.45-28.86-1.48zm52.1-4.77c52.81-8.11 97.4-44.24 126.21-87.91 27.13-41.13 41.71-89.63 46.2-138.45 2.11-9.66 20.51-5.97 22.6-18.82 4.95-10.72 5.68-22.89 6.32-34.48.16-14.23-14.28-19.39-26.21-18.84-11.09-2.47-5.78-16.69-9.81-24.65-13.83-61.63-47.46-121.12-101.01-156.41-16.2-10.54-34.07-18.59-52.83-23.31-5.48 8.93-21.2 4.34-23.53 15.3-12.32 11.94-23.03-9.74-13.59-19.53-8-1.26-17 1.08-25.31 1.98-49.63 7.38-92.55 39.38-121.28 79.48-21.3 29.51-35.81 63.61-44.63 98.77-.54 11.53-4.47 23.78-17.97 22.31-15.98 6.78-17.96 27.31-15.03 42.27.56 17.13 21.2 18.46 26.26 31.72-.68 18.34 3.43 36.68 7.34 54.58 14.13 58.47 46.61 114.29 96.8 148.75 34.52 23.94 77.89 34.66 119.47 27.24zm-30.01-61.45c-13.95-1.68-27.08-6.5-39.57-12.77-11.96-4.71-22.85-11.16-33.45-18.39-10.89-6.65-14.3-19.66-22.29-29.01-8.07-14.61-15.51-30.31-15.62-47.41-2.91-10.53.66-25.01-2.32-33.1-10.83-.44-22.57 6.01-32.71 1.09-5.38-9.83 14.46.62 19.86-3.42 13.25-1.34 26.7-8.84 31.49-21.82 1.8-5.79 10.37-10.93 6.05-.85-3.22 12.59-18.99 17.68-20.04 30.77.29 12.36 1.14 24.81 2.84 37.07 1.55 12.01 7.85 22.16 13.23 32.71 8.73 15.37 19.17 31.64 36.31 38.45 11.73 7.46 24.8 11.96 37.4 17.58 11.94 2.93 24.69 7.16 36.8 2.71 17.78-5.97 34.78-14.09 50.03-25.05 12.12-6.14 20.76-16.2 27.03-28.04 6.45-11.07 12.06-22.77 15.85-35.04 3.49-14.38 2.61-29.52 2.63-44.13-.75-11.05-6.15-20.42-14.68-27.17-4.51-3.06-12.62-20.64-3.03-10.94 7.23 10.02 16.57 20.84 30.28 18.9 11.79.63 24.37.78 35.02-5.08 8.6 5.03-10.89 9.53-15.59 8.97-9.17 2.51-25.09-2.72-30.02 3.4 3.42 15.41 2.36 31.38 1.27 46.99-3.11 22.96-15.83 43.16-27.99 62.3-11.39 11.5-26.12 18.96-39.93 27.11-13.64 6.16-27.55 13.28-42.65 14.69-2.07.05-4.16-.11-6.2-.52zm189.85-182.61c.48-9.64 19.35 6.84 20.07-7.5 4.16-8.73 6.77-31.55-6.39-31.22-3.75 2.04-17.81 10.73-10.73.64 10.63-11.05 27.95-2.82 24.5 12.71.31 11.22-1.92 29.78-16.97 28.17-3.63 0-7.53-.49-10.48-2.8zm-391.83-9.42c-7.81-10.5-11.98-25.87-3.9-37.18 4.35-6.19 22.1 1.4 13.76 4.71-14.11-7.17-17.41 15.27-10.54 23.61 1.89 8.4 10.78 4.39 13.56 3.35 2.68 6.13-9.64 9.67-12.88 5.51zm219.79-52.52c-13.39-11.05 13.25-27.88 18.03-11.49 4.39 10.27-10.71 20.63-18.03 11.49zm-39-9c-13.39-11.05 13.25-27.88 18.03-11.49 4.39 10.27-10.71 20.63-18.03 11.49zm79.6-22.91c-5.76-6.06-25.99-9.28-23.25-16.03 10.01.82 26.14 8 28.22 16.46-1.47 1.03-3.62.58-4.97-.43zm-106.67-6.27c7.29-10.57 21.27-13.07 32.36-17.72 4.82 9.7-14.84 8.05-19.55 14.74-3.74 2.19-8.39 5-12.81 2.98zm61.93-145.17c.63-14.58 28.1-6.35 23.42-23.94-2.9-6.63-3.32-15.72 5.83-15.89 7.95-11.49-12.3-19.38-11.34-30.18-12.41-3.48-16.66 15.62-3.48 18.01 3.69 8.64-10.72 17.01-1.64 25.68-2 11.43-30.94 9.41-18.82 26.69 1.55 2.01 4.69 1.74 6.03-.37z" transform="matrix(.8409 0 0 .72701 -91.67292 -142.1440711)"/><path style="fill:#000" d="M440.08 758.1c-13.95-1.68-27.08-6.5-39.57-12.77-11.96-4.71-22.85-11.16-33.45-18.39-10.89-6.65-14.3-19.66-22.29-29.01-8.07-14.61-15.51-30.31-15.62-47.41-2.91-10.53.66-25.01-2.32-33.1-10.83-.44-22.57 6.01-32.71 1.09-5.38-9.83 14.46.62 19.86-3.42 13.25-1.34 26.7-8.84 31.49-21.82 1.8-5.79 10.37-10.93 6.05-.85-3.22 12.59-18.99 17.68-20.04 30.77.29 12.36 1.14 24.81 2.84 37.07 1.55 12.01 7.85 22.16 13.23 32.71 8.73 15.37 19.17 31.64 36.31 38.45 11.73 7.46 24.8 11.96 37.4 17.58 11.94 2.93 24.69 7.16 36.8 2.71 17.78-5.97 34.78-14.09 50.03-25.05 12.12-6.14 20.76-16.2 27.03-28.04 6.45-11.07 12.06-22.77 15.85-35.04 3.49-14.38 2.61-29.52 2.63-44.13-.75-11.05-6.15-20.42-14.68-27.17-4.51-3.06-12.62-20.64-3.03-10.94 7.23 10.02 16.57 20.84 30.28 18.9 11.79.63 24.37.78 35.02-5.08 8.6 5.03-10.89 9.53-15.59 8.97-9.17 2.51-25.09-2.72-30.02 3.4 3.42 15.41 2.36 31.38 1.27 46.99-3.11 22.96-15.83 43.16-27.99 62.3-11.39 11.5-26.12 18.96-39.93 27.11-13.64 6.16-27.55 13.28-42.65 14.69-2.07.05-4.16-.11-6.2-.52zM629.93 575.49c.48-9.64 19.35 6.84 20.07-7.5 4.16-8.73 6.77-31.55-6.39-31.22-3.75 2.04-17.81 10.73-10.73.64 10.63-11.05 27.95-2.82 24.5 12.71.31 11.22-1.92 29.78-16.97 28.17-3.63 0-7.53-.49-10.48-2.8zM238.1 566.07c-7.81-10.5-11.98-25.87-3.9-37.18 4.35-6.19 22.1 1.4 13.76 4.71-14.11-7.17-17.41 15.27-10.54 23.61 1.89 8.4 10.78 4.39 13.56 3.35 2.68 6.13-9.64 9.67-12.88 5.51zM457.89 513.55c-13.39-11.05 13.25-27.88 18.03-11.49 4.39 10.27-10.71 20.63-18.03 11.49zM418.89 504.55c-13.39-11.05 13.25-27.88 18.03-11.49 4.39 10.27-10.71 20.63-18.03 11.49zM498.49 481.64c-5.76-6.06-25.99-9.28-23.25-16.03 10.01.82 26.14 8 28.22 16.46-1.47 1.03-3.62.58-4.97-.43zM391.82 475.37c7.29-10.57 21.27-13.07 32.36-17.72 4.82 9.7-14.84 8.05-19.55 14.74-3.74 2.19-8.39 5-12.81 2.98z" transform="matrix(.8409 0 0 .72701 -91.67292 -142.1440711)"/><path style="fill:#947968" d="M453.75 330.2c.63-14.58 28.1-6.35 23.42-23.94-2.9-6.63-3.32-15.72 5.83-15.89 7.95-11.49-12.3-19.38-11.34-30.18-12.41-3.48-16.66 15.62-3.48 18.01 3.69 8.64-10.72 17.01-1.64 25.68-2 11.43-30.94 9.41-18.82 26.69 1.55 2.01 4.69 1.74 6.03-.37z" transform="matrix(.8409 0 0 .72701 -91.67292 -142.1440711)"/><g><path d="M257.07 603.15c-30.079 0-46.356 5.4856-46.356 14.761l73.513 65.802c4.8327 9.4337 31.299 16.656 63.25 16.656 35.245 0 63.847-8.7721 64.062-19.625l1.625-.125-1.6875-1c-43.06-24.83-104.06-71.63-154.4-76.47z" style="fill:url(#d);filter:url(#filter5188)" transform="matrix(.82527 0 0 .82527 -8.40285 95.21119)"/><g transform="matrix(.82527 0 0 .82527 2.05577605 500.64078213)"><path d="M303.59-29.362c-11.076 0-19.993 8.9168-19.993 19.993l-15 188.68c0 5.4985 2.2109 10.45 5.7792 14.057.0257.0259.0522.0523.078.0781 5.7025 12.426 31.667 21.867 62.868 21.867 31.202 0 57.166-9.4416 62.868-21.867.0257-.0258.0525-.0522.078-.0781 3.5682-3.6075 5.7792-8.559 5.7792-14.057l-14.99-188.68c0-11.076-8.9168-19.993-19.993-19.993h-67.476z" style="fill:url(#e)"/><path transform="matrix(2.3762 0 0 1.6286 2649.2 304.72)" d="M-947.87666-73.882141c0 8.689165-11.47611 15.733126-25.63262 15.733126-14.1565 0-25.63262-7.043961-25.63262-15.733126s11.47612-15.733126 25.63262-15.733126c14.15651 0 25.63262 7.043961 25.63262 15.733126z" style="fill:url(#f)"/><rect x="331.04001" y="-1.4216" width="4.9981999" height="175.83" ry="3.9704001" style="fill:#2e3436"/><rect x="155.28" y="-360.44" width="2.4991" height="24.990999" transform="rotate(90)" style="fill:#2e3436" ry=".56431001"/><rect x="20.490999" y="-360.44" width="2.4991" height="24.990999" ry=".56431001" transform="rotate(90)" style="fill:#2e3436"/><rect x="63.752998" y="-360.44" width="2.4991" height="24.990999" transform="rotate(90)" style="fill:#2e3436" ry=".56431001"/><rect x="107.02" y="-360.44" width="2.4991" height="24.990999" ry=".56431001" transform="rotate(90)" style="fill:#2e3436"/><rect x="128.64999" y="-360.44" width="2.4991" height="24.990999" transform="rotate(90)" style="fill:#2e3436" ry=".56431001"/><rect x="85.385002" y="-360.44" width="2.4991" height="24.990999" ry=".56431001" transform="rotate(90)" style="fill:#2e3436"/><rect x="42.122002" y="-360.44" width="2.4991" height="24.990999" transform="rotate(90)" style="fill:#2e3436" ry=".56431001"/><g transform="matrix(2.1455 0 0 2.4991 2190.5 470.95)" style="fill:#000;filter:url(#g)"><path d="M-846.85-126.14c.20164 0 .3595-.0727.47361-.21805.11566-.14536.1735-.34622.1735-.60256 0-.25634-.0578-.45719-.1735-.60256-.11411-.14536-.27197-.21804-.47361-.21804-.20945 0-.36732.0696-.4736.20866-.10629.13756-.15944.34153-.15944.61194 0 .27197.0524.47673.15709.61428.10629.13755.26494.20633.47595.20633m-.84405 1.4794v-.43609c.0985.0578.2032.10238.31418.13364.11097.0297.22664.0445.347.0445.3001 0 .52674-.11254.67992-.33762.15475-.22664.23212-.55957.23212-.99879-.0735.15631-.17663.27666-.30949.36107-.13286.0828-.28526.12426-.45719.12426-.33762 0-.59943-.10394-.78544-.31183-.18444-.20788-.27666-.50252-.27666-.88391 0-.37669.0946-.6682.2837-.87453.19069-.20788.45953-.31183.80653-.31183.4064 0 .70416.14615.89329.43844.18913.29229.28369.75183.2837 1.3786-.00001.58927-.11411 1.0394-.34231 1.3505-.22665.30948-.55645.46422-.98942.46422-.1141 0-.22899-.0125-.34465-.0375-.11567-.0234-.22743-.0578-.33528-.10316M-844.23-126.35c0-.086.0297-.16021.0891-.22273.061-.0625.13364-.0938.21804-.0938.0875.00001.16256.0313.22508.0938.0625.0625.0938.13677.0938.22273 0 .0875-.0313.16178-.0938.22274-.061.061-.13598.0914-.22508.0914-.0875 0-.16099-.0297-.22039-.0891-.0578-.0594-.0868-.13442-.0868-.22508m.31183-1.4302c-.22039 0-.38529.11879-.4947.35637-.10786.23759-.16178.59944-.16178 1.0856 0 .48454.0539.84561.16178 1.0832.10941.23759.27431.35638.4947.35638.22196 0 .38686-.11879.49471-.35638.10941-.23758.16412-.59865.16412-1.0832 0-.48611-.0547-.84796-.16412-1.0856-.10785-.23758-.27275-.35637-.49471-.35637m0-.37514c.37357 0 .6557.15318.8464.45954.19225.30636.28838.75887.28838 1.3575 0 .59708-.0961 1.0488-.28838 1.3552-.1907.30635-.47283.45953-.8464.45953-.37357 0-.6557-.15318-.84639-.45953-.1907-.30636-.28604-.75809-.28604-1.3552 0-.59865.0953-1.0512.28604-1.3575.19069-.30636.47282-.45954.84639-.45954"/></g><g transform="matrix(2.1455 0 0 2.4991 2184.3 448.4)" style="fill:#000;filter:url(#h)"><path d="M-847.62-124.99h.7362v-2.6752l-.79247.17819v-.43141l.78778-.17349h.4736v3.1019h.72683v.39858h-1.9319v-.39858M-844.49-124.99h1.6084v.39858h-2.1265v-.39858c.29229-.30792.54785-.57989.76668-.81591.21882-.23602.36966-.40249.4525-.4994.1563-.19069.26181-.34465.31652-.46188.0547-.11879.0821-.23993.0821-.36341 0-.19538-.0578-.34856-.1735-.45954-.1141-.11098-.27119-.16647-.47126-.16647-.14224 0-.29151.0258-.44782.0774-.1563.0516-.32199.12974-.49705.23446v-.47829c.161-.0766.31886-.13442.47361-.1735.1563-.0391.31026-.0586.46188-.0586.34231 0 .61741.0914.82529.27432.20945.18132.31418.41968.31418.7151 0 .15005-.0352.30011-.10551.45016-.0688.15005-.18131.31574-.33762.49705-.0875.1016-.21492.24227-.38217.42202-.16568.17976-.4189.4486-.75964.80654M-841.34-126.35c0-.086.0297-.16021.0891-.22273.0609-.0625.13364-.0938.21804-.0938.0875.00001.16256.0313.22508.0938.0625.0625.0938.13677.0938.22273 0 .0875-.0313.16178-.0938.22274-.061.061-.13598.0914-.22508.0914-.0875 0-.16099-.0297-.22039-.0891-.0578-.0594-.0867-.13442-.0867-.22508m.31183-1.4302c-.22039 0-.38529.11879-.4947.35637-.10786.23759-.16178.59944-.16178 1.0856 0 .48454.0539.84561.16178 1.0832.10941.23759.27431.35638.4947.35638.22196 0 .38686-.11879.49471-.35638.10941-.23758.16412-.59865.16412-1.0832 0-.48611-.0547-.84796-.16412-1.0856-.10785-.23758-.27275-.35637-.49471-.35637m0-.37514c.37357 0 .6557.15318.8464.45954.19225.30636.28838.75887.28838 1.3575 0 .59708-.0961 1.0488-.28838 1.3552-.1907.30635-.47283.45953-.8464.45953-.37357 0-.6557-.15318-.84639-.45953-.1907-.30636-.28604-.75809-.28604-1.3552 0-.59865.0953-1.0512.28604-1.3575.19069-.30636.47282-.45954.84639-.45954"/></g><g transform="matrix(2.1455 0 0 2.4991 2184.3 425.85)" style="fill:#000;filter:url(#i)"><path d="M-847.62-124.99h.7362v-2.6752l-.79247.17819v-.43141l.78778-.17349h.4736v3.1019h.72683v.39858h-1.9319v-.39858M-844.88-128.09h1.7725v.39857h-1.3411v.86047c.0672-.025.13442-.043.20164-.0539.0688-.0125.13754-.0188.20632-.0188.36263 0 .65023.10707.86281.3212.21257.21414.31886.50409.31886.86984 0 .36889-.11176.65962-.33527.87219-.22196.21258-.52598.31886-.91205.31886-.186 0-.35638-.0125-.51112-.0375-.15318-.025-.29073-.0625-.41265-.11254v-.48064c.14381.0782.28839.13677.43375.17584.14537.0375.29386.0563.44547.0563.26103 0 .46189-.0688.60256-.20632.14224-.13755.21336-.33293.21336-.58615 0-.25008-.0735-.44468-.22039-.5838-.14537-.13911-.34856-.20866-.60959-.20867-.12661.00001-.25009.0149-.37045.0446-.12035.0281-.23524.0711-.34465.12895v-1.7584M-841.34-126.35c0-.086.0297-.16021.0891-.22273.0609-.0625.13364-.0938.21804-.0938.0875.00001.16256.0313.22508.0938.0625.0625.0938.13677.0938.22273 0 .0875-.0313.16178-.0938.22274-.061.061-.13598.0914-.22508.0914-.0875 0-.16099-.0297-.22039-.0891-.0578-.0594-.0867-.13442-.0867-.22508m.31183-1.4302c-.22039 0-.38529.11879-.4947.35637-.10786.23759-.16178.59944-.16178 1.0856 0 .48454.0539.84561.16178 1.0832.10941.23759.27431.35638.4947.35638.22196 0 .38686-.11879.49471-.35638.10941-.23758.16412-.59865.16412-1.0832 0-.48611-.0547-.84796-.16412-1.0856-.10785-.23758-.27275-.35637-.49471-.35637m0-.37514c.37357 0 .6557.15318.8464.45954.19225.30636.28838.75887.28838 1.3575 0 .59708-.0961 1.0488-.28838 1.3552-.1907.30635-.47283.45953-.8464.45953-.37357 0-.6557-.15318-.84639-.45953-.1907-.30636-.28604-.75809-.28604-1.3552 0-.59865.0953-1.0512.28604-1.3575.19069-.30636.47282-.45954.84639-.45954"/></g><g transform="matrix(2.1455 0 0 2.4991 2184.3 403.3)" style="fill:#000;filter:url(#j)"><path d="M-847.62-124.99h.7362v-2.6752l-.79247.17819v-.43141l.78778-.17349h.4736v3.1019h.72683v.39858h-1.9319v-.39858M-843.92-126.25c-.21101 0-.37435.0594-.49001.17819-.11411.11723-.17116.28369-.17116.4994 0 .2157.0578.38373.1735.50408.11723.11879.27979.17819.48767.17819.21258 0 .37592-.0586.49002-.17584.11567-.1188.1735-.28761.1735-.50643 0-.21414-.0586-.38061-.17584-.4994-.11567-.11879-.27823-.17819-.48768-.17819m-.41264-.19695c-.20164-.0516-.35951-.1477-.47361-.28838-.11254-.14067-.16881-.31026-.16881-.50877 0-.27823.0946-.49862.2837-.66118.18912-.16411.44625-.24618.77136-.24618.32668 0 .58458.0821.77372.24618.18912.16256.28369.38295.28369.66118 0 .19851-.0571.3681-.17115.50877-.11255.14068-.26963.23681-.47126.28838.23445.0516.41342.15553.53691.31183.12504.15631.18756.35873.18756.60725 0 .31574-.10082.5627-.30245.74089-.20164.17819-.48064.26728-.83702.26728-.35637 0-.63538-.0883-.83701-.26493-.20008-.17819-.30011-.42437-.30011-.73855 0-.25009.0617-.45328.18522-.60959.12505-.15787.3048-.26259.53926-.31418m-.17116-.75261c0 .18757.05.33059.15006.42906.10003.0985.24461.14771.43374.14771.19069 0 .33606-.0492.4361-.14771.10003-.0985.15005-.24149.15005-.42906 0-.19069-.05-.33605-.15005-.43609-.0985-.10003-.24384-.15005-.4361-.15005-.18913 0-.33371.0508-.43374.15239-.10004.10004-.15006.24463-.15006.43375M-841.34-126.35c0-.086.0297-.16021.0891-.22273.0609-.0625.13364-.0938.21804-.0938.0875.00001.16256.0313.22508.0938.0625.0625.0938.13677.0938.22273 0 .0875-.0313.16178-.0938.22274-.061.061-.13598.0914-.22508.0914-.0875 0-.16099-.0297-.22039-.0891-.0578-.0594-.0867-.13442-.0867-.22508m.31183-1.4302c-.22039 0-.38529.11879-.4947.35637-.10786.23759-.16178.59944-.16178 1.0856 0 .48454.0539.84561.16178 1.0832.10941.23759.27431.35638.4947.35638.22196 0 .38686-.11879.49471-.35638.10941-.23758.16412-.59865.16412-1.0832 0-.48611-.0547-.84796-.16412-1.0856-.10785-.23758-.27275-.35637-.49471-.35637m0-.37514c.37357 0 .6557.15318.8464.45954.19225.30636.28838.75887.28838 1.3575 0 .59708-.0961 1.0488-.28838 1.3552-.1907.30635-.47283.45953-.8464.45953-.37357 0-.6557-.15318-.84639-.45953-.1907-.30636-.28604-.75809-.28604-1.3552 0-.59865.0953-1.0512.28604-1.3575.19069-.30636.47282-.45954.84639-.45954"/></g><g transform="matrix(2.1455 0 0 2.4991 2184.3 380.75)" style="fill:#000;filter:url(#k)"><path d="M-847.38-124.99h1.6084v.39858h-2.1265v-.39858c.29229-.30792.54785-.57989.76668-.81591.21882-.23602.36966-.40249.4525-.4994.15631-.19069.26181-.34465.31652-.46188.0547-.11879.0821-.23993.0821-.36341 0-.19538-.0578-.34856-.1735-.45954-.1141-.11098-.27119-.16647-.47126-.16647-.14224 0-.29151.0258-.44782.0774-.1563.0516-.32199.12974-.49705.23446v-.47829c.161-.0766.31886-.13442.47361-.1735.1563-.0391.31026-.0586.46188-.0586.34231 0 .61741.0914.8253.27432.20944.18132.31417.41968.31417.7151 0 .15005-.0352.30011-.10551.45016-.0688.15005-.18131.31574-.33762.49705-.0875.1016-.21492.24227-.38216.42202-.16569.17976-.4189.4486-.75965.80654M-844.73-124.99h.7362v-2.6752l-.79247.17819v-.43141l.78778-.17349h.4736v3.1019h.72683v.39858h-1.9319v-.39858M-841.34-126.35c0-.086.0297-.16021.0891-.22273.0609-.0625.13364-.0938.21804-.0938.0875.00001.16256.0313.22508.0938.0625.0625.0938.13677.0938.22273 0 .0875-.0313.16178-.0938.22274-.061.061-.13598.0914-.22508.0914-.0875 0-.16099-.0297-.22039-.0891-.0578-.0594-.0867-.13442-.0867-.22508m.31183-1.4302c-.22039 0-.38529.11879-.4947.35637-.10786.23759-.16178.59944-.16178 1.0856 0 .48454.0539.84561.16178 1.0832.10941.23759.27431.35638.4947.35638.22196 0 .38686-.11879.49471-.35638.10941-.23758.16412-.59865.16412-1.0832 0-.48611-.0547-.84796-.16412-1.0856-.10785-.23758-.27275-.35637-.49471-.35637m0-.37514c.37357 0 .6557.15318.8464.45954.19225.30636.28838.75887.28838 1.3575 0 .59708-.0961 1.0488-.28838 1.3552-.1907.30635-.47283.45953-.8464.45953-.37357 0-.6557-.15318-.84639-.45953-.1907-.30636-.28604-.75809-.28604-1.3552 0-.59865.0953-1.0512.28604-1.3575.19069-.30636.47282-.45954.84639-.45954"/></g><g transform="matrix(2.1455 0 0 2.4991 2184.3 358.2)" style="fill:#000;filter:url(#l)"><path d="M-847.38-124.99h1.6084v.39858h-2.1265v-.39858c.29229-.30792.54785-.57989.76668-.81591.21882-.23602.36966-.40249.4525-.4994.15631-.19069.26181-.34465.31652-.46188.0547-.11879.0821-.23993.0821-.36341 0-.19538-.0578-.34856-.1735-.45954-.1141-.11098-.27119-.16647-.47126-.16647-.14224 0-.29151.0258-.44782.0774-.1563.0516-.32199.12974-.49705.23446v-.47829c.161-.0766.31886-.13442.47361-.1735.1563-.0391.31026-.0586.46188-.0586.34231 0 .61741.0914.8253.27432.20944.18132.31417.41968.31417.7151 0 .15005-.0352.30011-.10551.45016-.0688.15005-.18131.31574-.33762.49705-.0875.1016-.21492.24227-.38216.42202-.16569.17976-.4189.4486-.75965.80654M-843.64-127.66l-1.1043 1.8499h1.1043v-1.8499m-.0774-.4314h.54863v2.2813h.46657v.38451h-.46657v.83467h-.47126v-.83467h-1.4841v-.44782l1.4068-2.218M-841.34-126.35c0-.086.0297-.16021.0891-.22273.0609-.0625.13364-.0938.21804-.0938.0875.00001.16256.0313.22508.0938.0625.0625.0938.13677.0938.22273 0 .0875-.0313.16178-.0938.22274-.061.061-.13598.0914-.22508.0914-.0875 0-.16099-.0297-.22039-.0891-.0578-.0594-.0867-.13442-.0867-.22508m.31183-1.4302c-.22039 0-.38529.11879-.4947.35637-.10786.23759-.16178.59944-.16178 1.0856 0 .48454.0539.84561.16178 1.0832.10941.23759.27431.35638.4947.35638.22196 0 .38686-.11879.49471-.35638.10941-.23758.16412-.59865.16412-1.0832 0-.48611-.0547-.84796-.16412-1.0856-.10785-.23758-.27275-.35637-.49471-.35637m0-.37514c.37357 0 .6557.15318.8464.45954.19225.30636.28838.75887.28838 1.3575 0 .59708-.0961 1.0488-.28838 1.3552-.1907.30635-.47283.45953-.8464.45953-.37357 0-.6557-.15318-.84639-.45953-.1907-.30636-.28604-.75809-.28604-1.3552 0-.59865.0953-1.0512.28604-1.3575.19069-.30636.47282-.45954.84639-.45954"/></g><g transform="matrix(2.1455 0 0 2.4991 2184.3 335.65)" style="fill:#000;filter:url(#m)"><path d="M-847.38-124.99h1.6084v.39858h-2.1265v-.39858c.29229-.30792.54785-.57989.76668-.81591.21882-.23602.36966-.40249.4525-.4994.15631-.19069.26181-.34465.31652-.46188.0547-.11879.0821-.23993.0821-.36341 0-.19538-.0578-.34856-.1735-.45954-.1141-.11098-.27119-.16647-.47126-.16647-.14224 0-.29151.0258-.44782.0774-.1563.0516-.32199.12974-.49705.23446v-.47829c.161-.0766.31886-.13442.47361-.1735.1563-.0391.31026-.0586.46188-.0586.34231 0 .61741.0914.8253.27432.20944.18132.31417.41968.31417.7151 0 .15005-.0352.30011-.10551.45016-.0688.15005-.18131.31574-.33762.49705-.0875.1016-.21492.24227-.38216.42202-.16569.17976-.4189.4486-.75965.80654M-845.04-128.09h2.2039v.20163l-1.252 3.2988h-.49471l1.2192-3.1019h-1.6764v-.39857M-841.34-126.35c0-.086.0297-.16021.0891-.22273.0609-.0625.13364-.0938.21804-.0938.0875.00001.16256.0313.22508.0938.0625.0625.0938.13677.0938.22273 0 .0875-.0313.16178-.0938.22274-.061.061-.13598.0914-.22508.0914-.0875 0-.16099-.0297-.22039-.0891-.0578-.0594-.0867-.13442-.0867-.22508m.31183-1.4302c-.22039 0-.38529.11879-.4947.35637-.10786.23759-.16178.59944-.16178 1.0856 0 .48454.0539.84561.16178 1.0832.10941.23759.27431.35638.4947.35638.22196 0 .38686-.11879.49471-.35638.10941-.23758.16412-.59865.16412-1.0832 0-.48611-.0547-.84796-.16412-1.0856-.10785-.23758-.27275-.35637-.49471-.35637m0-.37514c.37357 0 .6557.15318.8464.45954.19225.30636.28838.75887.28838 1.3575 0 .59708-.0961 1.0488-.28838 1.3552-.1907.30635-.47283.45953-.8464.45953-.37357 0-.6557-.15318-.84639-.45953-.1907-.30636-.28604-.75809-.28604-1.3552 0-.59865.0953-1.0512.28604-1.3575.19069-.30636.47282-.45954.84639-.45954"/></g><path d="M327.88-203.12c-8.4628.43469-16.562 10.219-16.562 10.219-2 2.625 3.5312 26.281 3.5312 26.281 1.0913 3.8196-26.837 59.113-31.531 68.375l-4.9375 9.4062c11.633 2.6302 27.874 4.2812 45.844 4.2812 17.741 0 33.806-1.6161 45.406-4.1875l-2.5938-6.6875c-1.3318-4.2443-3.2869-9.0872-5.5625-14.281-.0785-.17926-.13946-.3512-.21875-.53125-.01-.002-.0213.002-.0312 0-9.0345-20.513-22.854-46.101-23.188-59.938 0 0 3.9375-21.938 2.3125-23.188-3.5003-7.6586-8.0358-9.9777-12.469-9.75z" style="fill:url(#n)" transform="translate(14.5 70)"/><path transform="translate(2379.6 276.73) scale(2.4991)" style="fill:url(#o);filter:url(#filter3861)" d="M-810.81-145.97c0 .875 9.125 22.375 9.125 22.375s-2.1412 4.625-3.2662 2-8.4838-23.75-8.4838-23.75 1-2.25 2.625-.625z"/><path d="M-810.28-144.94c4.487 5.7046 8.5882 21.34 8.5882 21.34.20284 2.6257-2.3563 2.7837-6.2844.15996 4.4094-.58298-5.4656-21.91-5.4656-21.91s1.5368-1.215 3.1618.40998z" transform="matrix(1.6352 -.23767 -.67735 1.3189 1578.7 -127.15)" style="fill:url(#p);filter:url(#filter3861)"/><path d="M313.24-191.18c-3.583 8.7382 3.2924 16.393 2.5745 23.729-.7621 7.7876-4.413 15.264-9.012 24.99-1.1592 2.9776 8.5312.34375 8.5312.34375 10.329-22.851 3.9778-29.019 3.2812-51.094-1.798-1.0043-3.5952-.008-5.375 2.0312z" style="opacity:.65413998;fill:url(#q);filter:url(#filter3861)" transform="translate(14.5 70)"/><rect x="288.17001" y="-54.123001" width="100.73" height="35.342999" ry="9.7193003" style="fill:url(#r)"/><rect x="336.10999" y="30.666" width="4.4177999" height="16.788" ry="2.2089" transform="scale(1 -1)" style="opacity:.25;fill:url(#s)"/><rect x="294.35999" y="-47.453999" width="1.7494" height="16.788" ry="2.2089" style="opacity:.25;fill:url(#t)"/><rect x="377.85999" y="-47.453999" width="1.7494" height="16.788" ry="2.2089" style="opacity:.25;fill:url(#u)"/><rect x="354.20999" y="-47.453999" width="2.9988999" height="16.788" ry="2.2089" style="opacity:.25;fill:url(#v)"/><rect x="367.44" y="-47.453999" width="2.4991" height="16.788" ry="2.2089" style="opacity:.25;fill:url(#w)"/><rect x="319.23001" y="-47.453999" width="2.9988999" height="16.788" ry="2.2089" style="opacity:.25;fill:url(#x)"/><rect x="306.51999" y="-47.453999" width="2.4991" height="16.788" ry="2.2089" style="opacity:.25;fill:url(#y)"/><path d="M388.21-26.014c-1.2017 4.0029-4.889 6.9506-9.2936 6.9506 0 0-30.302 1.5619-81.221 0-4.1751 0-7.6779-2.6449-9.0593-6.3259 58.417 2.4991 95.2 0 95.2 0 1.5169 0 2.9682-.27398 4.3734-.62478z" style="opacity:.74694004;fill:url(#z)"/><path d="M344.95-55.066c10.001.07322 21.477.31239 34.207.70287 2.6511 0 5.0565 1.0905 6.7944 2.8115-56.853-2.3102-92.623.07797-92.623.07797-.81794 0-1.6382.10596-2.421.23417 1.7672-1.9116 4.2158-3.1239 7.0288-3.1239 0 0 17.011-.92252 47.014-.70287z" style="fill:url(#A)"/><path d="m294.16-18.223 6.7708 2.2929-4.1661 8.5111-12.798 196.72-9.6127-15.521 15.197-185.12 4.6096-6.8803z" style="opacity:.65413998;fill:url(#B);filter:url(#filter4068)"/><path d="M383.86-20.207c-1.4679 1.6599 3.6275 1.5335-3.0611 5.4308 0 0-88.495 10.527-94.68 7.4346-6.185-3.0925 3.0925-15.462 3.0925-15.462l94.649 2.5971z" style="opacity:.15;fill:#888a85"/><path d="m381.79-16.808-11.271 2.2929 3.1661 8.5111 9.7984 195.22 18.113-14.021-15.197-185.12-4.6096-6.8803z" style="opacity:.65413998;fill:url(#C)"/></g></g><path style="fill-rule:evenodd;fill:#000" d="M348.3 485.81c15.44-.17 39.07 1.47 38.51 17.62-.55 16.09-6.15 15.33-14.49 17.1 8.66 1.22 14.19.65 13.41 17.1-.73 15.43-15.61 12.96-21.35 12.84 9.99 4.14 11.95 8.54 11.85 16.45-.16 11.09-18.13 15.88-48.28 12.96-24.59-2.39-50.36-12.48-50.56-63.42-.13-30.8 12.9-53.8 47.1-60 17.26-3.13 39.97-1.62 45.65 5.04 9.21 10.82-3.36 21.18-21.84 24.31zM476.15 484.5c-15.44-.17-39.07 1.47-38.51 17.62.55 16.09 6.14 15.33 14.48 17.1-8.65 1.22-14.18.65-13.41 17.1.73 15.44 15.62 12.96 21.36 12.85-10 4.13-11.96 8.53-11.85 16.44.15 11.09 18.12 15.88 48.27 12.96 24.6-2.39 50.36-12.47 50.57-63.41.12-30.81-12.9-53.81-47.1-60.01-17.27-3.13-39.97-1.62-45.65 5.05-9.22 10.81 3.36 21.18 21.84 24.3z" transform="translate(-126.13 52.897)"/><path style="fill-rule:evenodd;fill:#e8cdba" d="M336.88 487.74c16.82-.17 46.68-1.07 47.75 14.39 1.61 23.14-20.68 15.43-41.21 17.66 23.89 4.46 42.89-2.23 39.9 17.65-2.76 18.38-26.72 7.66-41.2 9.82 13.91 3.44 31.94 4.73 32.04 17.65.1 12.21-20.23 16.18-47.09 12.43-22.8-3.18-46.9-11.96-47.09-60.82-.12-29.56 12.43-52.83 44.48-57.56 13.94-2.06 29.66-4.97 42.51 3.27 13.67 8.77-8.61 21.26-30.09 25.51zM487.56 486.43c-16.81-.16-46.68-1.07-47.74 14.39-1.62 23.14 20.68 15.43 41.2 17.66-23.88 4.47-42.88-2.22-39.89 17.66 2.76 18.38 26.72 7.65 41.2 9.81-13.92 3.44-31.95 4.73-32.05 17.66-.09 12.2 20.23 16.17 47.09 12.42 22.81-3.18 46.9-11.96 47.09-60.82.12-29.55-12.43-52.83-44.47-57.56-13.95-2.06-29.67-4.97-42.51 3.27-13.67 8.77 8.61 21.26 30.08 25.51z" transform="translate(-126.13 52.897)"/></svg>